<svg xmlns="http://www.w3.org/2000/svg" width="264" height="221.250" viewBox="0 0 264 221.250" fill="none" xmlns:c2pa="http://c2pa.org/manifest"><metadata><c2pa:manifest>AAAWgmp1bWIAAAAeanVtZGMycGEAEQAQgAAAqgA4m3EDYzJwYQAAABZcanVtYgAAAEdqdW1kYzJtYQARABCAAACqADibcQN1cm46YzJwYTowNTRiN2ZjYi0zNWU1LTRkZTQtYjRiOS1iMmYyOWU5OGNjZTUAAAADl2p1bWIAAAApanVtZGMyYXMAEQAQgAAAqgA4m3EDYzJwYS5hc3NlcnRpb25zAAAAALxqdW1iAAAARGp1bWRjYm9yABEAEIAAAKoAOJtxE2MycGEuaW5ncmVkaWVudC52MwAAAAAYYzJzaFGHwGf+GUrvWyVlxVZ6mmQAAABwY2JvcqNpZGM6Zm9ybWF0bWltYWdlL3N2Zyt4bWxqaW5zdGFuY2VJRHgseG1wOmlpZDo2MWUxYmUwNi04ZmI2LTRkYWItODVkYS00ODVjNzFhNGE1OGJscmVsYXRpb25zaGlwaHBhcmVudE9mAAAB4mp1bWIAAABBanVtZGNib3IAEQAQgAAAqgA4m3ETYzJwYS5hY3Rpb25zLnYyAAAAABhjMnNonHj3mrg3Js9Dbl5G7YSadQAAAZljYm9yomdhY3Rpb25zgqJmYWN0aW9ua2MycGEub3BlbmVkanBhcmFtZXRlcnOha2luZ3JlZGllbnRzgaJjdXJseC1zZWxmI2p1bWJmPWMycGEuYXNzZXJ0aW9ucy9jMnBhLmluZ3JlZGllbnQudjNkaGFzaFgg1IDjRX48nYroVCRk7mAKKwqwGJ63wLNyot8/2TE15cKkZmFjdGlvbngdY29tLmFudGhyb3BpYy5jbGF1ZGUucHJvdmlkZWRqcGFyYW1ldGVyc6F4H2NvbS5hbnRocm9waWMub3JpZ2luLWNvbmZpZGVuY2VndW5rbm93bmtkZXNjcmlwdGlvbnhmQ2xhdWRlIHByb3ZpZGVkIHRoaXMgZmlsZSBhdCB0aGUgcmVxdWVzdCBvZiBhIHVzZXIgYW5kIG1heSBoYXZlIGNyZWF0ZWQgb3IgbW9kaWZpZWQgdGhlIGZpbGUgY29udGVudHMubXNvZnR3YXJlQWdlbnShZG5hbWVmQ2xhdWRlcmFsbEFjdGlvbnNJbmNsdWRlZPUAAADIanVtYgAAAEBqdW1kY2JvcgARABCAAACqADibcRNjMnBhLmhhc2guZGF0YQAAAAAYYzJzaBTmIWubtK4/AfMgDKBMLloAAACAY2JvcqVjYWxnZnNoYTI1NmNwYWRNAAAAAAAAAAAAAAAAAGRoYXNoWCACGlQjsP4mX0RX5JNTUBaUMlMVlHFEId2Ob3NEH3g6xmRuYW1lbmp1bWJmIG1hbmlmZXN0amV4Y2x1c2lvbnOBomVzdGFydBiqZmxlbmd0aBkeBAAAAj5qdW1iAAAAJ2p1bWRjMmNsABEAEIAAAKoAOJtxA2MycGEuY2xhaW0udjIAAAACD2Nib3KlY2FsZ2ZzaGEyNTZpc2lnbmF0dXJleE1zZWxmI2p1bWJmPS9jMnBhL3VybjpjMnBhOjA1NGI3ZmNiLTM1ZTUtNGRlNC1iNGI5LWIyZjI5ZTk4Y2NlNS9jMnBhLnNpZ25hdHVyZWppbnN0YW5jZUlEeCx4bXA6aWlkOmY4NmY1MWY0LWNjMzgtNDI0My1iOGNiLTgyZjY1NjY2YWQzN3JjcmVhdGVkX2Fzc2VydGlvbnODomN1cmx4LXNlbGYjanVtYmY9YzJwYS5hc3NlcnRpb25zL2MycGEuaW5ncmVkaWVudC52M2RoYXNoWCDUgONFfjydiuhUJGTuYAorCrAYnrfAs3Ki3z/ZMTXlwqJjdXJseCpzZWxmI2p1bWJmPWMycGEuYXNzZXJ0aW9ucy9jMnBhLmFjdGlvbnMudjJkaGFzaFggobgmxOzqWMBe7u0kwdQ6UDvFCdGKZveZc02EJAImxSuiY3VybHgpc2VsZiNqdW1iZj1jMnBhLmFzc2VydGlvbnMvYzJwYS5oYXNoLmRhdGFkaGFzaFggaT7LS83UoO0x+g+aWetR0dwOL+VnFZh26H74qnyevNJ0Y2xhaW1fZ2VuZXJhdG9yX2luZm+jZG5hbWVvQW50aHJvcGljIEZpbGVzZ3ZlcnNpb25lMS4wLjBrc3BlY1ZlcnNpb25lMi40LjAAABA4anVtYgAAAChqdW1kYzJjcwARABCAAACqADibcQNjMnBhLnNpZ25hdHVyZQAAABAIY2JvctKEWQISogEmGCFZAgowggIGMIIBjaADAgECAhRA5aAK7sI50L64g/oGQgU9Z1UTADAKBggqhkjOPQQDAzBJMRcwFQYDVQQKEw5BbnRocm9waWMsIFBCQzEuMCwGA1UEAxMlQW50aHJvcGljIENvbnRlbnQgQ3JlZGVudGlhbHMgUm9vdCBDQTAeFw0yNjA4MDcxODQzNTZaFw0yODA4MDYxOTQzNTZaMEQxFzAVBgNVBAoTDkFudGhyb3BpYywgUEJDMSkwJwYDVQQDEyBBbnRocm9waWMgQ2xhdWRlIENvbnRlbnQgU2lnbmluZzBZMBMGByqGSM49AgEGCCqGSM49AwEHA0IABJh6CmvLUBgFFNU0vUKlOVtE6djd17L5SuwX0LemFisBM3dkd/3cyjxFA3Qo5S46fX0/ihY0VZ7mfb9KF703t5OjWDBWMA4GA1UdDwEB/wQEAwIHgDAVBgNVHSUEDjAMBgorBgEEAYPoXgIBMAwGA1UdEwEB/wQCMAAwHwYDVR0jBBgwFoAUzlHiBIFOZFsj+OPEz5o+nMHXXMIwCgYIKoZIzj0EAwMDZwAwZAIwMXMdFJ4BetLLVY7ORuE9noqbbAZOZn/aArXyTwFAZfKrPzxF2vPoJNf1+UCdg1XGAjBwX1zd9WGqYkqmL5SFqw1QySjr1zJfpJM9+1rdDwSPLMOPOjKuiXjoU/pUUeG9RwmhY3BhZFkNngAAAAAAAAAAAAAAAAAAAAAAAAAAAAAAAAAAAAAAAAAAAAAAAAAAAAAAAAAAAAAAAAAAAAAAAAAAAAAAAAAAAAAAAAAAAAAAAAAAAAAAAAAAAAAAAAAAAAAAAAAAAAAAAAAAAAAAAAAAAAAAAAAAAAAAAAAAAAAAAAAAAAAAAAAAAAAAAAAAAAAAAAAAAAAAAAAAAAAAAAAAAAAAAAAAAAAAAAAAAAAAAAAAAAAAAAAAAAAAAAAAAAAAAAAAAAAAAAAAAAAAAAAAAAAAAAAAAAAAAAAAAAAAAAAAAAAAAAAAAAAAAAAAAAAAAAAAAAAAAAAAAAAAAAAAAAAAAAAAAAAAAAAAAAAAAAAAAAAAAAAAAAAAAAAAAAAAAAAAAAAAAAAAAAAAAAAAAAAAAAAAAAAAAAAAAAAAAAAAAAAAAAAAAAAAAAAAAAAAAAAAAAAAAAAAAAAAAAAAAAAAAAAAAAAAAAAAAAAAAAAAAAAAAAAAAAAAAAAAAAAAAAAAAAAAAAAAAAAAAAAAAAAAAAAAAAAAAAAAAAAAAAAAAAAAAAAAAAAAAAAAAAAAAAAAAAAAAAAAAAAAAAAAAAAAAAAAAAAAAAAAAAAAAAAAAAAAAAAAAAAAAAAAAAAAAAAAAAAAAAAAAAAAAAAAAAAAAAAAAAAAAAAAAAAAAAAAAAAAAAAAAAAAAAAAAAAAAAAAAAAAAAAAAAAAAAAAAAAAAAAAAAAAAAAAAAAAAAAAAAAAAAAAAAAAAAAAAAAAAAAAAAAAAAAAAAAAAAAAAAAAAAAAAAAAAAAAAAAAAAAAAAAAAAAAAAAAAAAAAAAAAAAAAAAAAAAAAAAAAAAAAAAAAAAAAAAAAAAAAAAAAAAAAAAAAAAAAAAAAAAAAAAAAAAAAAAAAAAAAAAAAAAAAAAAAAAAAAAAAAAAAAAAAAAAAAAAAAAAAAAAAAAAAAAAAAAAAAAAAAAAAAAAAAAAAAAAAAAAAAAAAAAAAAAAAAAAAAAAAAAAAAAAAAAAAAAAAAAAAAAAAAAAAAAAAAAAAAAAAAAAAAAAAAAAAAAAAAAAAAAAAAAAAAAAAAAAAAAAAAAAAAAAAAAAAAAAAAAAAAAAAAAAAAAAAAAAAAAAAAAAAAAAAAAAAAAAAAAAAAAAAAAAAAAAAAAAAAAAAAAAAAAAAAAAAAAAAAAAAAAAAAAAAAAAAAAAAAAAAAAAAAAAAAAAAAAAAAAAAAAAAAAAAAAAAAAAAAAAAAAAAAAAAAAAAAAAAAAAAAAAAAAAAAAAAAAAAAAAAAAAAAAAAAAAAAAAAAAAAAAAAAAAAAAAAAAAAAAAAAAAAAAAAAAAAAAAAAAAAAAAAAAAAAAAAAAAAAAAAAAAAAAAAAAAAAAAAAAAAAAAAAAAAAAAAAAAAAAAAAAAAAAAAAAAAAAAAAAAAAAAAAAAAAAAAAAAAAAAAAAAAAAAAAAAAAAAAAAAAAAAAAAAAAAAAAAAAAAAAAAAAAAAAAAAAAAAAAAAAAAAAAAAAAAAAAAAAAAAAAAAAAAAAAAAAAAAAAAAAAAAAAAAAAAAAAAAAAAAAAAAAAAAAAAAAAAAAAAAAAAAAAAAAAAAAAAAAAAAAAAAAAAAAAAAAAAAAAAAAAAAAAAAAAAAAAAAAAAAAAAAAAAAAAAAAAAAAAAAAAAAAAAAAAAAAAAAAAAAAAAAAAAAAAAAAAAAAAAAAAAAAAAAAAAAAAAAAAAAAAAAAAAAAAAAAAAAAAAAAAAAAAAAAAAAAAAAAAAAAAAAAAAAAAAAAAAAAAAAAAAAAAAAAAAAAAAAAAAAAAAAAAAAAAAAAAAAAAAAAAAAAAAAAAAAAAAAAAAAAAAAAAAAAAAAAAAAAAAAAAAAAAAAAAAAAAAAAAAAAAAAAAAAAAAAAAAAAAAAAAAAAAAAAAAAAAAAAAAAAAAAAAAAAAAAAAAAAAAAAAAAAAAAAAAAAAAAAAAAAAAAAAAAAAAAAAAAAAAAAAAAAAAAAAAAAAAAAAAAAAAAAAAAAAAAAAAAAAAAAAAAAAAAAAAAAAAAAAAAAAAAAAAAAAAAAAAAAAAAAAAAAAAAAAAAAAAAAAAAAAAAAAAAAAAAAAAAAAAAAAAAAAAAAAAAAAAAAAAAAAAAAAAAAAAAAAAAAAAAAAAAAAAAAAAAAAAAAAAAAAAAAAAAAAAAAAAAAAAAAAAAAAAAAAAAAAAAAAAAAAAAAAAAAAAAAAAAAAAAAAAAAAAAAAAAAAAAAAAAAAAAAAAAAAAAAAAAAAAAAAAAAAAAAAAAAAAAAAAAAAAAAAAAAAAAAAAAAAAAAAAAAAAAAAAAAAAAAAAAAAAAAAAAAAAAAAAAAAAAAAAAAAAAAAAAAAAAAAAAAAAAAAAAAAAAAAAAAAAAAAAAAAAAAAAAAAAAAAAAAAAAAAAAAAAAAAAAAAAAAAAAAAAAAAAAAAAAAAAAAAAAAAAAAAAAAAAAAAAAAAAAAAAAAAAAAAAAAAAAAAAAAAAAAAAAAAAAAAAAAAAAAAAAAAAAAAAAAAAAAAAAAAAAAAAAAAAAAAAAAAAAAAAAAAAAAAAAAAAAAAAAAAAAAAAAAAAAAAAAAAAAAAAAAAAAAAAAAAAAAAAAAAAAAAAAAAAAAAAAAAAAAAAAAAAAAAAAAAAAAAAAAAAAAAAAAAAAAAAAAAAAAAAAAAAAAAAAAAAAAAAAAAAAAAAAAAAAAAAAAAAAAAAAAAAAAAAAAAAAAAAAAAAAAAAAAAAAAAAAAAAAAAAAAAAAAAAAAAAAAAAAAAAAAAAAAAAAAAAAAAAAAAAAAAAAAAAAAAAAAAAAAAAAAAAAAAAAAAAAAAAAAAAAAAAAAAAAAAAAAAAAAAAAAAAAAAAAAAAAAAAAAAAAAAAAAAAAAAAAAAAAAAAAAAAAAAAAAAAAAAAAAAAAAAAAAAAAAAAAAAAAAAAAAAAAAAAAAAAAAAAAAAAAAAAAAAAAAAAAAAAAAAAAAAAAAAAAAAAAAAAAAAAAAAAAAAAAAAAAAAAAAAAAAAAAAAAAAAAAAAAAAAAAAAAAAAAAAAAAAAAAAAAAAAAAAAAAAAAAAAAAAAAAAAAAAAAAAAAAAAAAAAAAAAAAAAAAAAAAAAAAAAAAAAAAAAAAAAAAAAAAAAAAAAAAAAAAAAAAAAAAAAAAAAAAAAAAAAAAAAAAAAAAAAAAAAAAAAAAAAAAAAAAAAAAAAAAAAAAAAAAAAAAAAAAAAAAAAAAAAAAAAAAAAAAAAAAAAAAAAAAAAAAAAAAAAAAAAAAAAAAAAAAAAAAAAAAAAAAAAAAAAAAAAAAAAAAAAAAAAAAAAAAAAAAAAAAAAAAAAAAAAAAAAAAAAAAAAAAAAAAAAAAAAAAAAAAAAAAAAAAAAAAAAAAAAAAAAAAAAAAAAAAAAAAAAAAAAAAAAAAAAAAAAAAAAAAAAAAAAAAAAAAAAAAAAAAAAAAAAAAAAAAAAAAAAAAAAAAAAAAAAAAAAAAAAAAAAAAAAAAAAAAAAAAAAAAAAAAAAAAAAAAAAAAAAAAAAAAAAAAAAAAAAAAAAAAAAAAAAAAAAAAAAAAAAAAAAAAAAAAAAAAAAAAAAAAAAAAAAAAAAAAAAAAAAAAAAAAAAAAAAAAAAAAAAAAAAAAAAAAAAAAAAAAAAAAAAAAAAAAAAAAAAAAAAAAAAAAAAAAAAAAAAAAAAAAAAAAAAAAAAAAAAAAAAAAAAAAAAAAAAAAAAAAAAAAAAAAAAAAAAAAAAAAAAAAAAAAAAAAAAAAAAAAAAAAAAAAAAAAAAAAAAAAAAAAAAAAAAAAAAAAAAAAAAAAAAAAAAAAAAAAAAAAAAAAAAAAAAAAAAAAAAAAAAAAAAAAAAAAAAAAAAAAAAAAAAAAAAAAAAAAAAAAAAAAAAAAAAAAAAAAAAAAAAAAAAAAAAAAAAAAAAAAAAAAAAAAAAAAAAAAAAAAAAAAAAAAAAAAAAAAAAAAAAAAAAAAAAAAAAAAAAAAAAAAAAAAAAAAAAAAAAAAAAAAAAAAAAAAAAAAAAAAAAAAAAAAAAAAAAAAAAAAAAAAAAAAAAAAAAAAAAAAAAAAAAAAAAAAAAAAAAAAAAAAAAAAAAAAAAAAAAAAAAAAAAAAAAAAAAAAAAAAAAAAAAAAAAAAAAAAAAAAAAAAAAAAAAAAAAAAAAAAAAAAAAAAAAAAAAAAAAAAAAAAAAAAAAAAAAAAAAAAAAAAAAAAAAAAAAAAAAAAAAAAAAAAAAAAAAAAAAAAAAAAAAAAAAAAAAAAAAAAAAAAAAAAAAAAAAAAAAAAAAAAAAAAAAAAAAAAAAAAAAAAAAAAAAAAAAAAAAAAAAAAAAAAAAAAAAAAAAAAAAAAAAAAAAAAAAAAAAAAAAAAAAAAAAAAAAAAAAAAAAAAAAAAAAAAAAAAAAAAAAAAAAAAAAAAAAAAAAAAAAAAAAAAAAAAAAAAAAAAAAAAAAAAAAAAAAAAAAAAAAAAAAAAAAAAAAAAAAAAAAAAAAAAAAAAAAAAAAAAAAAAAAAAAAAAAAAAAAAAAAAAAAAAAAAAAAAAAAAAAAAAAAAAAAAAAAAAAAAAAAAAAAAAAAAAAAAAAAAAAAAAAAAAAAAAAAAAAAAAAAAAAAAAAAAAAAAAAAAAAAAAAAAAAAAAAAAAAAAAAAAAAAAAAAAAAAAAAPZYQJO6o73arE0VxRUNAmUYi2MzTQYOFph065hcsmCQO8Z9McNi0Bqk7xtqBmk3s43eRe3yGy4GllJBFHKBI+PaqzA=</c2pa:manifest></metadata>
  <path d="M 134.96 221.246 C 133.976 221.249 132.989 221.25 132 221.25 C 131.011 221.25 130.024 221.249 129.04 221.246 L 129.044 219.746 C 130.027 219.749 131.012 219.75 132 219.75 C 132.988 219.75 133.973 219.749 134.956 219.746 L 134.96 221.246 Z M 118.746 219.671 C 120.696 219.694 122.659 219.712 124.633 219.726 L 124.623 221.226 C 122.646 221.212 120.68 221.194 118.728 221.171 L 118.736 220.421 L 118.746 219.671 Z M 145.264 220.421 L 145.272 221.171 C 143.32 221.194 141.354 221.212 139.377 221.226 L 139.367 219.726 C 141.341 219.712 143.304 219.694 145.254 219.671 L 145.264 220.421 Z M 108.427 219.496 C 110.376 219.539 112.34 219.576 114.318 219.608 L 114.306 220.358 L 114.294 221.108 C 112.313 221.076 110.346 221.039 108.395 220.996 L 108.41 220.246 L 108.427 219.496 Z M 155.59 220.246 L 155.605 220.996 C 153.654 221.039 151.687 221.076 149.706 221.108 L 149.694 220.358 L 149.682 219.608 C 151.66 219.576 153.624 219.539 155.573 219.496 L 155.59 220.246 Z M 98.127 219.22 C 100.071 219.282 102.035 219.339 104.014 219.391 L 103.993 220.141 L 103.974 220.891 C 101.992 220.839 100.026 220.782 98.079 220.72 L 98.104 219.97 L 98.127 219.22 Z M 165.896 219.97 L 165.921 220.72 C 163.974 220.782 162.008 220.839 160.026 220.891 L 160.007 220.141 L 159.986 219.391 C 161.965 219.339 163.929 219.282 165.873 219.22 L 165.896 219.97 Z M 87.828 218.835 C 89.77 218.918 91.732 218.997 93.715 219.069 L 93.66 220.568 C 91.674 220.496 89.708 220.417 87.764 220.334 L 87.828 218.835 Z M 176.236 220.334 C 174.292 220.417 172.326 220.496 170.34 220.568 L 170.285 219.069 C 172.268 218.997 174.23 218.918 176.172 218.835 L 176.236 220.334 Z M 77.524 218.332 C 79.46 218.438 81.421 218.54 83.406 218.635 L 83.371 219.384 L 83.335 220.133 C 81.346 220.038 79.382 219.936 77.442 219.83 L 77.524 218.332 Z M 186.558 219.83 C 184.618 219.936 182.654 220.038 180.665 220.133 L 180.629 219.384 L 180.594 218.635 C 182.579 218.54 184.54 218.438 186.476 218.332 L 186.558 219.83 Z M 67.236 217.7 C 69.166 217.832 71.126 217.958 73.115 218.078 L 73.069 218.827 L 73.024 219.575 C 71.032 219.455 69.068 219.329 67.135 219.197 L 67.236 217.7 Z M 196.865 219.197 C 194.932 219.329 192.968 219.455 190.976 219.575 L 190.931 218.827 L 190.885 218.078 C 192.874 217.958 194.834 217.832 196.764 217.7 L 196.865 219.197 Z M 56.963 216.921 C 58.884 217.082 60.842 217.238 62.837 217.387 L 62.726 218.882 C 60.726 218.733 58.763 218.578 56.837 218.416 L 56.899 217.669 L 56.963 216.921 Z M 207.101 217.669 L 207.163 218.416 C 205.237 218.578 203.274 218.733 201.274 218.882 L 201.163 217.387 C 203.158 217.238 205.116 217.082 207.037 216.921 L 207.101 217.669 Z M 46.702 215.967 C 48.611 216.163 50.567 216.353 52.569 216.536 L 52.433 218.03 C 50.425 217.847 48.463 217.656 46.549 217.459 L 46.625 216.713 L 46.702 215.967 Z M 217.375 216.713 L 217.451 217.459 C 215.537 217.656 213.575 217.847 211.567 218.03 L 211.431 216.536 C 213.433 216.353 215.389 216.163 217.298 215.967 L 217.375 216.713 Z M 36.472 214.795 C 38.357 215.036 40.306 215.269 42.314 215.495 L 42.146 216.985 C 40.131 216.759 38.175 216.524 36.281 216.282 L 36.376 215.538 L 36.472 214.795 Z M 227.624 215.538 L 227.719 216.282 C 225.825 216.524 223.869 216.759 221.854 216.985 L 221.686 215.495 C 223.694 215.269 225.643 215.036 227.528 214.795 L 227.624 215.538 Z M 26.295 213.328 C 28.143 213.63 30.08 213.923 32.101 214.208 L 31.995 214.951 L 31.891 215.693 C 29.861 215.407 27.913 215.112 26.054 214.809 L 26.175 214.068 L 26.295 213.328 Z M 237.825 214.068 L 237.946 214.809 C 236.087 215.112 234.139 215.407 232.109 215.693 L 232.005 214.951 L 231.899 214.208 C 233.92 213.923 235.857 213.63 237.705 213.328 L 237.825 214.068 Z M 134.958 214.495 C 133.975 214.498 132.989 214.5 132 214.5 C 131.012 214.5 130.026 214.498 129.043 214.495 L 129.046 212.996 C 130.028 212.999 131.013 213 132 213 C 132.987 213 133.972 212.999 134.954 212.996 L 134.958 214.495 Z M 118.755 212.921 C 120.704 212.944 122.665 212.962 124.638 212.976 L 124.629 214.475 C 122.653 214.461 120.689 214.443 118.737 214.42 L 118.755 212.921 Z M 145.264 214.42 C 143.312 214.443 141.348 214.461 139.372 214.475 L 139.362 212.976 C 141.335 212.962 143.296 212.944 145.245 212.921 L 145.264 214.42 Z M 108.443 212.747 C 110.391 212.789 112.354 212.826 114.33 212.858 L 114.318 213.608 L 114.307 214.356 C 112.327 214.324 110.362 214.288 108.411 214.245 L 108.443 212.747 Z M 155.59 214.245 C 153.639 214.288 151.674 214.324 149.694 214.356 L 149.683 213.607 L 149.67 212.858 C 151.646 212.826 153.609 212.789 155.557 212.747 L 155.59 214.245 Z M 98.151 212.471 C 100.094 212.533 102.056 212.59 104.033 212.642 L 104.014 213.391 L 104 213.902 L 103.994 214.139 C 102.014 214.087 100.05 214.03 98.104 213.968 L 98.151 212.471 Z M 165.873 213.22 L 165.896 213.968 C 163.951 214.03 161.987 214.087 160.007 214.139 L 160 213.902 L 159.986 213.391 L 159.987 213.39 L 159.967 212.642 C 161.944 212.59 163.906 212.533 165.849 212.471 L 165.873 213.22 Z M 16.206 211.403 C 17.979 211.803 19.894 212.193 21.943 212.572 L 21.807 213.31 L 21.671 214.047 C 19.605 213.665 17.67 213.271 15.876 212.866 L 16.206 211.403 Z M 248.124 212.866 C 246.33 213.271 244.395 213.665 242.329 214.047 L 242.193 213.31 L 242.057 212.572 C 244.106 212.193 246.021 211.803 247.794 211.403 L 248.124 212.866 Z M 87.86 212.086 C 89.8 212.169 91.761 212.247 93.742 212.319 L 93.715 213.069 L 93.688 213.817 C 91.704 213.745 89.74 213.666 87.797 213.583 L 87.86 212.086 Z M 176.204 213.583 C 174.261 213.666 172.297 213.745 170.313 213.817 L 170.285 213.069 L 170.286 213.068 L 170.258 212.319 C 172.239 212.247 174.2 212.169 176.14 212.086 L 176.204 213.583 Z M 77.565 211.584 C 79.499 211.69 81.459 211.791 83.442 211.886 L 83.372 213.382 C 81.385 213.287 79.422 213.186 77.484 213.08 L 77.565 211.584 Z M 186.517 213.08 C 184.579 213.186 182.616 213.287 180.629 213.382 L 180.558 211.886 C 182.541 211.791 184.501 211.69 186.435 211.584 L 186.517 213.08 Z M 67.288 210.952 C 69.215 211.084 71.173 211.21 73.16 211.33 L 73.07 212.826 C 71.079 212.706 69.118 212.579 67.187 212.447 L 67.224 211.894 L 67.237 211.7 L 67.288 210.952 Z M 196.814 212.447 C 194.883 212.579 192.921 212.706 190.931 212.826 L 190.885 212.078 L 190.886 212.077 L 190.84 211.33 C 192.827 211.21 194.785 211.084 196.712 210.952 L 196.814 212.447 Z M 57.025 210.174 C 58.944 210.335 60.9 210.49 62.893 210.639 L 62.782 212.132 C 60.785 211.983 58.824 211.828 56.9 211.667 L 57.025 210.174 Z M 207.101 211.667 C 205.177 211.828 203.216 211.983 201.219 212.132 L 201.107 210.639 C 203.1 210.49 205.056 210.335 206.975 210.174 L 207.101 211.667 Z M 6.426 208.538 C 7.946 209.153 9.79 209.758 11.941 210.347 L 11.744 211.07 L 11.546 211.793 C 9.357 211.194 7.453 210.572 5.863 209.929 L 6.426 208.538 Z M 258.137 209.929 C 256.547 210.572 254.643 211.194 252.454 211.793 L 252.256 211.07 L 252.059 210.347 C 254.21 209.758 256.055 209.153 257.574 208.538 L 258.137 209.929 Z M 46.779 209.221 C 48.685 209.417 50.639 209.606 52.638 209.789 L 52.502 211.281 C 50.497 211.098 48.538 210.908 46.626 210.711 L 46.779 209.221 Z M 217.375 210.711 C 215.463 210.908 213.504 211.098 211.499 211.281 L 211.362 209.789 C 213.361 209.606 215.315 209.417 217.221 209.221 L 217.375 210.711 Z M 36.566 208.051 C 38.448 208.291 40.393 208.523 42.398 208.749 L 42.231 210.238 C 40.219 210.012 38.267 209.777 36.377 209.536 L 36.566 208.051 Z M 227.624 209.536 C 225.734 209.777 223.782 210.012 221.77 210.238 L 221.602 208.749 C 223.607 208.523 225.552 208.291 227.434 208.051 L 227.624 209.536 Z M 26.416 206.588 C 28.258 206.889 30.19 207.182 32.205 207.466 L 32.101 208.208 L 32.019 208.785 L 31.996 208.949 C 29.971 208.664 28.029 208.369 26.176 208.066 L 26.179 208.047 L 26.296 207.328 L 26.416 206.588 Z M 237.825 208.066 C 235.972 208.369 234.03 208.664 232.005 208.949 L 231.899 208.208 L 231.9 208.207 L 231.795 207.466 C 233.81 207.182 235.742 206.889 237.584 206.588 L 237.825 208.066 Z M 1.5 204.75 C 1.5 205.228 1.805 205.84 2.741 206.571 L 2.279 207.162 L 1.818 207.753 C 0.74 206.911 0 205.913 0 204.75 L 1.5 204.75 Z M 264 204.75 C 264 205.913 263.259 206.911 262.182 207.753 L 261.721 207.162 L 261.259 206.571 C 262.195 205.84 262.5 205.228 262.5 204.75 L 264 204.75 Z M 16.371 204.672 C 18.133 205.069 20.038 205.457 22.08 205.835 L 21.808 207.308 C 19.75 206.927 17.825 206.534 16.042 206.132 L 16.371 204.672 Z M 247.959 206.132 C 246.176 206.534 244.251 206.927 242.193 207.308 L 241.92 205.835 C 243.962 205.457 245.867 205.068 247.629 204.671 L 247.959 206.132 Z M 6.707 201.843 C 8.192 202.444 10.007 203.04 12.14 203.623 L 11.745 205.066 C 9.575 204.473 7.7 203.862 6.146 203.232 L 6.707 201.843 Z M 257.855 203.232 C 256.301 203.862 254.426 204.473 252.256 205.066 L 251.86 203.623 C 253.993 203.04 255.808 202.444 257.293 201.843 L 257.855 203.232 Z M 3.203 197.521 C 2.339 198.196 2.25 198.614 2.25 198.75 C 2.25 198.885 2.338 199.304 3.203 199.979 L 2.741 200.571 L 2.29 201.148 L 2.28 201.161 C 1.273 200.375 0.75 199.57 0.75 198.75 C 0.75 197.93 1.273 197.124 2.28 196.338 L 3.203 197.521 Z M 261.721 196.338 C 262.728 197.124 263.25 197.93 263.25 198.75 C 263.25 199.57 262.727 200.375 261.721 201.161 L 261.26 200.57 L 260.797 199.979 C 261.662 199.304 261.75 198.885 261.75 198.75 C 261.75 198.614 261.661 198.196 260.797 197.521 L 261.721 196.338 Z M 12.14 193.877 C 10.007 194.46 8.192 195.056 6.707 195.657 L 6.146 194.267 C 7.7 193.637 9.575 193.026 11.745 192.433 L 12.14 193.877 Z M 252.256 192.433 C 254.426 193.026 256.301 193.637 257.855 194.267 L 257.293 195.657 C 255.808 195.056 253.993 194.46 251.86 193.877 L 252.256 192.433 Z M 22.08 191.665 C 20.038 192.043 18.133 192.432 16.371 192.829 L 16.042 191.367 C 17.825 190.965 19.75 190.572 21.808 190.191 L 22.08 191.665 Z M 242.193 190.191 C 244.251 190.572 246.176 190.965 247.959 191.367 L 247.629 192.829 C 245.867 192.432 243.962 192.043 241.92 191.665 L 242.193 190.191 Z M 32.205 190.034 C 30.19 190.318 28.258 190.611 26.416 190.912 L 26.272 190.035 L 26.176 189.433 C 28.029 189.13 29.971 188.835 31.996 188.55 L 32.205 190.034 Z M 232.005 188.55 C 234.03 188.835 235.972 189.13 237.825 189.433 L 237.728 190.035 L 237.584 190.912 C 235.742 190.611 233.81 190.318 231.795 190.034 L 231.979 188.731 L 232.005 188.55 Z M 42.398 188.751 C 40.393 188.977 38.448 189.209 36.566 189.449 L 36.377 187.963 C 38.267 187.722 40.219 187.487 42.231 187.261 L 42.398 188.751 Z M 221.77 187.261 C 223.782 187.487 225.734 187.722 227.624 187.963 L 227.434 189.449 C 225.552 189.209 223.607 188.977 221.602 188.751 L 221.77 187.261 Z M 52.638 187.711 C 50.639 187.894 48.685 188.083 46.779 188.279 L 46.626 186.788 C 48.538 186.591 50.497 186.401 52.502 186.218 L 52.638 187.711 Z M 211.499 186.218 C 213.504 186.401 215.463 186.591 217.375 186.788 L 217.221 188.279 C 215.315 188.083 213.361 187.894 211.362 187.711 L 211.499 186.218 Z M 62.893 186.861 C 60.9 187.01 58.944 187.165 57.025 187.326 L 56.9 185.832 C 58.824 185.671 60.785 185.516 62.782 185.367 L 62.893 186.861 Z M 201.219 185.367 C 203.216 185.516 205.177 185.671 207.101 185.832 L 206.975 187.326 C 205.056 187.165 203.1 187.01 201.107 186.861 L 201.219 185.367 Z M 73.16 186.17 C 71.173 186.29 69.215 186.416 67.288 186.548 L 67.237 185.799 L 67.236 185.8 L 67.187 185.052 C 69.118 184.92 71.08 184.793 73.07 184.673 L 73.16 186.17 Z M 190.931 184.673 C 192.921 184.793 194.883 184.92 196.814 185.052 L 196.764 185.799 L 196.712 186.548 C 194.785 186.416 192.827 186.29 190.84 186.17 L 190.931 184.673 Z M 83.442 185.614 C 81.459 185.709 79.499 185.81 77.565 185.916 L 77.518 185.052 L 77.484 184.419 C 79.422 184.313 81.385 184.212 83.372 184.117 L 83.442 185.614 Z M 180.629 184.117 C 182.616 184.212 184.579 184.313 186.517 184.419 L 186.482 185.052 L 186.435 185.916 C 184.501 185.81 182.541 185.709 180.558 185.614 L 180.629 184.117 Z M 93.742 185.181 C 91.761 185.253 89.8 185.331 87.86 185.414 L 87.797 183.916 C 89.74 183.833 91.704 183.754 93.688 183.682 L 93.742 185.181 Z M 170.313 183.682 C 172.297 183.754 174.261 183.833 176.204 183.916 L 176.14 185.414 C 174.2 185.331 172.239 185.253 170.258 185.181 L 170.313 183.682 Z M 104.033 184.858 C 102.056 184.91 100.094 184.967 98.151 185.029 L 98.128 184.279 L 98.127 184.28 L 98.104 183.531 C 100.05 183.469 102.014 183.412 103.994 183.36 L 104.033 184.858 Z M 160.006 183.36 C 161.986 183.412 163.95 183.469 165.896 183.531 L 165.873 184.279 L 165.849 185.029 C 163.906 184.967 161.944 184.91 159.967 184.858 L 160.006 183.36 Z M 114.317 183.87 L 114.33 184.642 C 112.354 184.674 110.391 184.711 108.443 184.753 L 108.411 183.254 C 110.362 183.211 112.327 183.175 114.307 183.143 L 114.317 183.87 Z M 149.694 183.143 C 151.674 183.175 153.639 183.211 155.59 183.254 L 155.557 184.753 C 153.609 184.711 151.646 184.674 149.67 184.642 L 149.694 183.143 Z M 124.638 184.524 C 122.665 184.538 120.704 184.556 118.755 184.579 L 118.737 183.079 C 120.689 183.056 122.653 183.038 124.629 183.024 L 124.638 184.524 Z M 139.372 183.024 C 141.348 183.038 143.312 183.056 145.264 183.079 L 145.245 184.579 C 143.296 184.556 141.335 184.538 139.362 184.524 L 139.372 183.024 Z M 134.958 183.004 L 134.956 183.753 L 134.953 184.504 C 133.971 184.501 132.987 184.5 132 184.5 C 131.013 184.5 130.028 184.501 129.046 184.504 L 129.043 183.004 C 130.026 183.001 131.012 183 132 183 C 132.989 183 133.975 183.001 134.958 183.004 Z M 243.376 161.15 C 245.599 161.333 247.539 161.396 249.178 161.338 L 249.23 162.837 C 247.516 162.898 245.515 162.83 243.253 162.645 L 243.313 161.897 L 243.376 161.15 Z M 256.512 159.976 C 256.114 161.068 255.076 161.754 253.775 162.176 L 253.545 161.463 L 253.313 160.749 C 254.442 160.382 254.938 159.912 255.102 159.463 L 256.512 159.976 Z M 233.216 159.821 C 235.272 160.166 237.204 160.454 239.007 160.685 L 238.816 162.172 C 236.992 161.939 235.04 161.647 232.968 161.3 L 233.216 159.821 Z M 223.111 157.884 C 225.107 158.307 227.028 158.694 228.868 159.043 L 228.728 159.779 L 228.589 160.517 C 226.738 160.166 224.806 159.777 222.801 159.352 L 222.957 158.618 L 223.111 157.884 Z M 213.073 155.601 C 215.038 156.075 216.949 156.522 218.804 156.94 L 218.64 157.672 L 218.474 158.403 C 216.612 157.983 214.693 157.534 212.722 157.058 L 213.073 155.601 Z M 245.489 154.765 C 247.693 154.946 249.602 155.006 251.203 154.949 L 251.257 156.448 C 249.58 156.508 247.61 156.44 245.367 156.256 L 245.489 154.765 Z M 203.081 153.071 C 205.025 153.584 206.928 154.075 208.789 154.543 L 208.606 155.271 L 208.423 155.997 C 206.557 155.527 204.647 155.035 202.698 154.521 L 203.081 153.071 Z M 257.247 151.291 C 257.924 152.374 258.139 153.31 257.858 154.081 C 257.578 154.851 256.811 155.429 255.597 155.823 L 255.366 155.11 L 255.133 154.397 C 256.177 154.058 256.403 153.694 256.449 153.567 C 256.495 153.44 256.555 153.017 255.974 152.087 L 257.247 151.291 Z M 235.392 153.443 C 237.439 153.787 239.363 154.073 241.154 154.302 L 240.965 155.788 C 239.152 155.556 237.209 155.267 235.146 154.921 L 235.392 153.443 Z M 225.319 151.513 C 227.31 151.935 229.226 152.321 231.06 152.668 L 230.781 154.14 C 228.936 153.79 227.01 153.403 225.01 152.979 L 225.164 152.246 L 225.165 152.245 L 225.319 151.513 Z M 193.142 150.358 C 195.067 150.901 196.961 151.424 198.821 151.93 L 198.625 152.654 L 198.428 153.378 C 196.563 152.871 194.665 152.345 192.735 151.802 L 193.142 150.358 Z M 215.302 149.232 C 217.263 149.706 219.171 150.152 221.021 150.57 L 220.692 152.031 C 218.834 151.611 216.918 151.165 214.95 150.689 L 215.302 149.232 Z M 183.247 147.493 C 185.157 148.061 187.042 148.612 188.9 149.148 L 188.484 150.59 C 186.623 150.053 184.734 149.499 182.82 148.931 L 183.034 148.213 L 183.247 147.493 Z M 205.324 146.707 C 207.265 147.219 209.167 147.709 211.024 148.177 L 210.659 149.63 C 208.796 149.161 206.889 148.67 204.942 148.156 L 205.324 146.707 Z M 249.688 144.384 C 251.525 145.684 253.077 146.899 254.323 148.022 L 253.318 149.137 C 252.129 148.064 250.627 146.884 248.822 145.606 L 249.688 144.384 Z M 173.386 144.496 C 175.284 145.086 177.161 145.661 179.017 146.224 L 178.582 147.659 C 176.723 147.096 174.842 146.519 172.94 145.929 L 173.163 145.212 L 173.386 144.496 Z M 195.397 143.998 C 197.32 144.54 199.212 145.063 201.07 145.568 L 200.678 147.015 C 198.815 146.508 196.919 145.982 194.991 145.439 L 195.397 143.998 Z M 163.551 141.379 C 165.438 141.989 167.309 142.586 169.162 143.172 L 168.71 144.603 C 166.854 144.016 164.98 143.418 163.089 142.807 L 163.551 141.379 Z M 185.513 141.137 C 187.421 141.704 189.304 142.255 191.16 142.79 L 190.745 144.229 C 188.885 143.693 186.999 143.141 185.087 142.573 L 185.299 141.854 L 185.301 141.854 L 185.513 141.137 Z M 240.999 138.837 C 242.802 139.898 244.477 140.925 246.015 141.913 L 245.205 143.174 C 243.686 142.198 242.028 141.181 240.238 140.128 L 240.999 138.837 Z M 153.763 138.158 C 155.64 138.787 157.505 139.404 159.354 140.011 L 159.119 140.724 L 158.885 141.438 C 157.034 140.83 155.168 140.211 153.288 139.582 L 153.763 138.158 Z M 175.66 138.142 C 177.556 138.731 179.432 139.306 181.286 139.868 L 180.852 141.303 C 178.994 140.74 177.115 140.162 175.216 139.572 L 175.66 138.142 Z M 165.834 135.026 C 167.72 135.636 169.589 136.234 171.44 136.819 L 170.989 138.248 C 169.135 137.662 167.262 137.064 165.373 136.453 L 165.603 135.741 L 165.604 135.74 L 165.834 135.026 Z M 144.005 134.839 C 145.875 135.485 147.734 136.121 149.58 136.748 L 149.339 137.459 L 149.098 138.169 C 147.249 137.541 145.388 136.904 143.516 136.257 L 143.761 135.548 L 144.005 134.839 Z M 231.986 133.81 C 233.792 134.771 235.516 135.712 237.154 136.63 L 236.856 137.162 L 236.421 137.938 C 234.793 137.025 233.078 136.089 231.281 135.133 L 231.9 133.972 L 231.986 133.81 Z M 156.053 131.81 C 157.929 132.437 159.792 133.055 161.639 133.661 L 161.405 134.373 L 161.172 135.084 C 159.322 134.477 157.457 133.859 155.579 133.23 L 155.653 133.006 L 155.815 132.521 L 155.816 132.52 L 156.053 131.81 Z M 134.272 131.421 C 136.132 132.084 137.983 132.738 139.823 133.383 L 139.576 134.091 L 139.327 134.799 C 137.484 134.153 135.631 133.498 133.769 132.834 L 134.272 131.421 Z M 222.81 129.098 C 224.623 129.999 226.377 130.887 228.07 131.76 L 227.384 133.091 C 225.697 132.222 223.948 131.338 222.142 130.44 L 222.81 129.098 Z M 146.303 128.491 C 148.171 129.137 150.028 129.774 151.873 130.4 L 151.392 131.819 C 149.544 131.192 147.685 130.555 145.813 129.908 L 146.059 129.2 L 146.303 128.491 Z M 127.342 128.924 C 128.27 129.262 129.197 129.598 130.121 129.932 L 129.611 131.343 C 128.686 131.009 127.758 130.672 126.828 130.334 C 125.899 129.996 124.972 129.656 124.049 129.317 L 124.565 127.909 C 125.488 128.248 126.414 128.586 127.342 128.924 Z M 213.515 124.604 C 215.336 125.463 217.113 126.312 218.842 127.15 L 218.187 128.499 C 216.463 127.663 214.692 126.817 212.876 125.961 L 213.515 124.604 Z M 136.577 125.076 C 138.436 125.739 140.285 126.393 142.124 127.037 L 141.629 128.452 C 139.787 127.807 137.934 127.152 136.073 126.488 L 136.577 125.076 Z M 114.914 124.316 C 116.738 125.005 118.576 125.694 120.427 126.382 L 119.905 127.788 C 118.052 127.1 116.211 126.41 114.384 125.72 L 114.648 125.019 L 114.914 124.316 Z M 129.65 122.581 C 130.578 122.919 131.504 123.255 132.428 123.588 L 131.919 124.998 C 130.994 124.664 130.067 124.329 129.138 123.991 C 128.209 123.653 127.283 123.313 126.36 122.975 L 126.876 121.567 C 127.798 121.906 128.723 122.243 129.65 122.581 Z M 105.276 120.623 C 107.093 121.33 108.927 122.038 110.774 122.744 L 110.506 123.444 L 110.238 124.145 C 108.388 123.437 106.553 122.729 104.733 122.021 L 105.276 120.623 Z M 204.146 120.289 C 205.971 121.112 207.761 121.928 209.514 122.737 L 208.885 124.099 C 207.137 123.291 205.351 122.476 203.53 121.655 L 204.146 120.289 Z M 117.231 117.977 C 119.054 118.665 120.891 119.353 122.74 120.04 L 122.22 121.446 C 120.368 120.758 118.528 120.069 116.702 119.38 L 117.231 117.977 Z M 95.692 116.841 C 97.498 117.564 99.324 118.289 101.166 119.015 L 100.891 119.712 L 100.615 120.41 C 98.771 119.684 96.943 118.958 95.135 118.233 L 95.414 117.537 L 95.692 116.841 Z M 194.716 116.118 C 196.545 116.912 198.346 117.702 200.115 118.486 L 199.812 119.171 L 199.507 119.857 C 197.741 119.075 195.944 118.286 194.118 117.494 L 194.716 116.118 Z M 107.601 114.287 C 109.416 114.993 111.248 115.698 113.095 116.404 L 112.827 117.105 L 112.561 117.805 C 110.712 117.098 108.877 116.391 107.059 115.684 L 107.601 114.287 Z M 86.146 112.957 C 87.942 113.699 89.76 114.444 91.598 115.19 L 91.034 116.58 C 89.193 115.833 87.372 115.087 85.573 114.344 L 86.146 112.957 Z M 185.225 112.072 C 187.059 112.841 188.87 113.607 190.654 114.37 L 190.406 114.952 L 190.065 115.748 C 188.284 114.987 186.478 114.223 184.646 113.455 L 185.225 112.072 Z M 98.024 110.507 C 99.829 111.23 101.653 111.955 103.493 112.68 L 103.218 113.376 L 103.03 113.853 L 102.944 114.072 C 101.101 113.346 99.275 112.621 97.468 111.897 L 98.024 110.507 Z M 76.637 108.96 C 78.419 109.722 80.227 110.488 82.06 111.256 L 81.771 111.948 L 81.48 112.64 C 79.644 111.87 77.833 111.103 76.047 110.34 L 76.637 108.96 Z M 175.68 108.135 C 177.519 108.882 179.338 109.627 181.136 110.37 L 180.563 111.756 C 178.768 111.014 176.952 110.27 175.115 109.524 L 175.68 108.135 Z M 88.485 106.626 C 90.28 107.368 92.096 108.111 93.933 108.856 L 93.65 109.552 L 93.37 110.246 C 91.53 109.499 89.711 108.754 87.913 108.011 L 88.485 106.626 Z M 67.185 104.848 C 68.952 105.631 70.752 106.421 72.58 107.214 L 72.28 107.901 L 71.982 108.589 C 70.151 107.794 68.349 107.005 66.577 106.22 L 67.185 104.848 Z M 166.104 104.308 C 167.948 105.034 169.774 105.759 171.581 106.483 L 171.304 107.178 L 171.024 107.874 C 169.22 107.151 167.396 106.427 165.556 105.702 L 166.104 104.308 Z M 78.982 102.633 C 80.764 103.394 82.571 104.159 84.402 104.927 L 83.824 106.309 C 81.99 105.54 80.179 104.773 78.395 104.011 L 78.982 102.633 Z M 57.798 100.602 C 59.548 101.41 61.335 102.226 63.158 103.048 L 62.542 104.415 C 60.715 103.591 58.922 102.774 57.168 101.964 L 57.481 101.283 L 57.798 100.602 Z M 156.489 100.576 C 158.338 101.283 160.173 101.99 161.991 102.697 L 161.447 104.095 C 159.632 103.389 157.8 102.683 155.954 101.977 L 156.489 100.576 Z M 69.541 98.524 C 71.307 99.307 73.104 100.095 74.93 100.888 L 74.334 102.263 C 72.504 101.469 70.704 100.679 68.935 99.895 L 69.159 99.387 L 69.238 99.21 L 69.541 98.524 Z M 146.83 96.935 C 148.682 97.623 150.522 98.311 152.348 99.001 L 151.817 100.404 C 149.994 99.716 148.157 99.028 146.308 98.341 L 146.83 96.935 Z M 48.481 96.195 C 50.208 97.033 51.982 97.881 53.801 98.737 L 53.161 100.095 C 51.338 99.236 49.559 98.385 47.827 97.545 L 48.481 96.195 Z M 60.164 94.282 C 61.912 95.09 63.697 95.905 65.519 96.727 L 64.904 98.092 C 63.079 97.269 61.288 96.453 59.536 95.644 L 60.164 94.282 Z M 139.911 94.391 C 140.84 94.729 141.766 95.067 142.689 95.406 L 142.432 96.109 L 142.172 96.813 C 141.25 96.475 140.325 96.137 139.397 95.8 C 138.47 95.462 137.544 95.126 136.621 94.793 L 137.131 93.383 C 138.056 93.717 138.982 94.053 139.911 94.391 Z M 39.27 91.596 C 40.959 92.467 42.71 93.353 44.52 94.252 L 43.853 95.595 C 42.036 94.692 40.278 93.802 38.581 92.928 L 38.925 92.261 L 39.27 91.596 Z M 50.861 89.883 C 52.585 90.719 54.356 91.565 56.172 92.421 L 55.534 93.776 C 53.713 92.918 51.937 92.069 50.208 91.23 L 50.861 89.883 Z M 127.421 89.929 C 129.263 90.574 131.115 91.229 132.976 91.893 L 132.472 93.305 C 130.613 92.642 128.764 91.989 126.925 91.345 L 127.421 89.929 Z M 30.208 86.736 C 31.841 87.652 33.561 88.59 35.362 89.549 L 35.009 90.211 L 34.657 90.873 C 32.847 89.91 31.118 88.966 29.475 88.045 L 29.842 87.391 L 30.208 86.736 Z M 117.658 86.562 C 119.505 87.189 121.365 87.826 123.236 88.473 L 122.997 89.16 L 122.745 89.89 C 120.877 89.244 119.02 88.607 117.176 87.98 L 117.658 86.562 Z M 41.665 85.29 C 43.351 86.159 45.099 87.044 46.906 87.941 L 46.24 89.283 C 44.427 88.382 42.672 87.494 40.979 86.621 L 41.665 85.29 Z M 107.878 83.297 C 109.728 83.904 111.592 84.522 113.471 85.15 L 112.995 86.571 C 111.119 85.943 109.256 85.327 107.409 84.721 L 107.645 84.008 L 107.643 84.008 L 107.878 83.297 Z M 21.386 81.477 C 22.915 82.459 24.581 83.481 26.377 84.538 L 25.996 85.184 L 25.617 85.83 C 23.807 84.764 22.123 83.733 20.575 82.739 L 21.386 81.477 Z M 32.627 80.444 C 34.255 81.357 35.97 82.293 37.767 83.249 L 37.414 83.911 L 37.14 84.425 L 37.063 84.571 C 35.257 83.61 33.534 82.669 31.896 81.751 L 31.905 81.733 L 32.261 81.099 L 32.627 80.444 Z M 98.061 80.133 C 99.915 80.719 101.787 81.317 103.677 81.928 L 103.215 83.354 C 101.329 82.745 99.459 82.148 97.607 81.563 L 98.061 80.133 Z M 13.175 75.439 C 14.392 76.537 15.919 77.736 17.739 79.025 L 17.307 79.638 L 16.873 80.249 C 15.021 78.937 13.445 77.702 12.171 76.554 L 13.175 75.439 Z M 88.197 77.078 C 90.054 77.641 91.934 78.218 93.834 78.809 L 93.388 80.239 C 91.491 79.65 89.615 79.074 87.762 78.513 L 88.013 77.685 L 88.197 77.078 Z M 23.843 75.208 C 25.362 76.184 27.02 77.201 28.81 78.254 L 28.05 79.544 C 26.246 78.482 24.572 77.456 23.034 76.468 L 23.843 75.208 Z M 78.305 74.151 C 80.164 74.688 82.051 75.24 83.963 75.808 L 83.535 77.245 C 81.627 76.678 79.744 76.127 77.889 75.592 L 78.097 74.87 L 78.096 74.871 L 78.305 74.151 Z M 68.372 71.366 C 70.235 71.872 72.13 72.398 74.058 72.941 L 73.65 74.383 C 71.727 73.841 69.836 73.317 67.979 72.813 L 68.372 71.366 Z M 15.729 69.244 C 16.919 70.317 18.421 71.498 20.226 72.775 L 19.361 73.996 C 17.525 72.696 15.972 71.482 14.727 70.358 L 15.729 69.244 Z M 9.842 70.195 C 9.679 70.644 9.756 71.324 10.386 72.331 L 9.749 72.729 L 9.114 73.126 C 8.389 71.966 8.035 70.775 8.433 69.683 L 9.842 70.195 Z M 58.39 68.75 C 60.253 69.219 62.16 69.711 64.106 70.225 L 63.724 71.674 C 61.783 71.162 59.882 70.672 58.024 70.204 L 58.39 68.75 Z M 48.357 66.349 C 50.216 66.768 52.131 67.216 54.099 67.691 L 53.746 69.149 C 51.785 68.676 49.878 68.229 48.027 67.811 L 48.357 66.349 Z M 13.915 63.984 C 12.871 64.323 12.645 64.686 12.599 64.813 C 12.552 64.941 12.492 65.364 13.074 66.295 L 12.438 66.693 L 11.816 67.081 L 11.803 67.09 C 11.125 66.007 10.909 65.071 11.189 64.301 C 11.47 63.53 12.237 62.952 13.452 62.558 L 13.915 63.984 Z M 38.269 64.241 C 40.114 64.591 42.039 64.978 44.04 65.402 L 43.729 66.868 C 41.737 66.446 39.822 66.061 37.988 65.714 L 38.153 64.841 L 38.269 64.241 Z M 28.084 62.593 C 29.897 62.825 31.84 63.114 33.904 63.46 L 33.656 64.938 C 31.609 64.595 29.685 64.308 27.894 64.079 L 28.084 62.593 Z M 17.793 61.933 C 19.469 61.873 21.44 61.941 23.683 62.125 L 23.559 63.617 C 21.355 63.436 19.445 63.375 17.845 63.432 L 17.793 61.933 Z M 134.96 38.246 C 133.976 38.249 132.989 38.25 132 38.25 C 131.011 38.25 130.024 38.249 129.04 38.246 L 129.044 36.746 C 130.027 36.749 131.012 36.75 132 36.75 C 132.988 36.75 133.973 36.749 134.956 36.746 L 134.96 38.246 Z M 118.746 36.671 C 120.696 36.694 122.659 36.712 124.633 36.726 L 124.623 38.226 C 122.646 38.212 120.68 38.194 118.728 38.171 L 118.736 37.421 L 118.746 36.671 Z M 145.264 37.421 L 145.272 38.171 C 143.32 38.194 141.354 38.212 139.377 38.226 L 139.367 36.726 C 141.341 36.712 143.304 36.694 145.254 36.671 L 145.264 37.421 Z M 108.427 36.496 C 110.376 36.539 112.34 36.576 114.318 36.608 L 114.306 37.358 L 114.294 38.108 C 112.313 38.076 110.346 38.039 108.395 37.996 L 108.41 37.246 L 108.427 36.496 Z M 155.59 37.246 L 155.605 37.996 C 153.654 38.039 151.687 38.076 149.706 38.108 L 149.694 37.358 L 149.682 36.608 C 151.66 36.576 153.624 36.539 155.573 36.496 L 155.59 37.246 Z M 98.127 36.22 C 100.071 36.282 102.035 36.339 104.014 36.391 L 103.993 37.141 L 103.974 37.891 C 101.992 37.839 100.026 37.782 98.079 37.72 L 98.104 36.97 L 98.127 36.22 Z M 165.896 36.97 L 165.921 37.72 C 163.974 37.782 162.008 37.839 160.026 37.891 L 160.007 37.141 L 159.986 36.391 C 161.965 36.339 163.929 36.282 165.873 36.22 L 165.896 36.97 Z M 87.828 35.835 C 89.77 35.918 91.732 35.997 93.715 36.069 L 93.66 37.568 C 91.674 37.496 89.708 37.417 87.764 37.334 L 87.828 35.835 Z M 176.236 37.334 C 174.292 37.417 172.326 37.496 170.34 37.568 L 170.285 36.069 C 172.268 35.997 174.23 35.918 176.172 35.835 L 176.236 37.334 Z M 77.524 35.332 C 79.46 35.438 81.421 35.54 83.406 35.635 L 83.371 36.384 L 83.335 37.133 C 81.346 37.038 79.382 36.936 77.442 36.83 L 77.524 35.332 Z M 186.558 36.83 C 184.618 36.936 182.654 37.038 180.665 37.133 L 180.629 36.384 L 180.594 35.635 C 182.579 35.54 184.54 35.438 186.476 35.332 L 186.558 36.83 Z M 67.236 34.7 C 69.166 34.832 71.126 34.958 73.115 35.078 L 73.069 35.827 L 73.024 36.575 C 71.032 36.455 69.068 36.329 67.135 36.197 L 67.236 34.7 Z M 196.865 36.197 C 194.932 36.329 192.968 36.455 190.976 36.575 L 190.931 35.827 L 190.885 35.078 C 192.874 34.958 194.834 34.832 196.764 34.7 L 196.865 36.197 Z M 56.963 33.921 C 58.884 34.082 60.842 34.238 62.837 34.387 L 62.726 35.882 C 60.726 35.733 58.763 35.578 56.837 35.416 L 56.899 34.669 L 56.963 33.921 Z M 207.101 34.669 L 207.163 35.416 C 205.237 35.578 203.274 35.733 201.274 35.882 L 201.163 34.387 C 203.158 34.238 205.116 34.082 207.037 33.921 L 207.101 34.669 Z M 46.702 32.967 C 48.611 33.163 50.567 33.353 52.569 33.536 L 52.433 35.03 C 50.425 34.847 48.463 34.656 46.549 34.459 L 46.625 33.713 L 46.702 32.967 Z M 217.375 33.713 L 217.451 34.459 C 215.537 34.656 213.575 34.847 211.567 35.03 L 211.431 33.536 C 213.433 33.353 215.389 33.163 217.298 32.967 L 217.375 33.713 Z M 36.472 31.795 C 38.357 32.036 40.306 32.269 42.314 32.495 L 42.146 33.985 C 40.131 33.759 38.175 33.524 36.281 33.282 L 36.376 32.538 L 36.472 31.795 Z M 227.624 32.538 L 227.719 33.282 C 225.825 33.524 223.869 33.759 221.854 33.985 L 221.686 32.495 C 223.694 32.269 225.643 32.036 227.528 31.795 L 227.624 32.538 Z M 26.295 30.328 C 28.143 30.63 30.08 30.923 32.101 31.208 L 31.995 31.951 L 31.891 32.693 C 29.861 32.407 27.913 32.112 26.054 31.809 L 26.175 31.068 L 26.295 30.328 Z M 237.825 31.068 L 237.946 31.809 C 236.087 32.112 234.139 32.407 232.109 32.693 L 232.005 31.951 L 231.899 31.208 C 233.92 30.923 235.857 30.63 237.705 30.328 L 237.825 31.068 Z M 134.958 31.495 C 133.975 31.498 132.989 31.5 132 31.5 C 131.012 31.5 130.026 31.498 129.043 31.495 L 129.046 29.996 C 130.028 29.999 131.013 30 132 30 C 132.987 30 133.972 29.999 134.954 29.996 L 134.958 31.495 Z M 118.755 29.921 C 120.704 29.944 122.665 29.962 124.638 29.976 L 124.629 31.475 C 122.653 31.461 120.689 31.443 118.737 31.42 L 118.755 29.921 Z M 145.264 31.42 C 143.312 31.443 141.348 31.461 139.372 31.475 L 139.362 29.976 C 141.335 29.962 143.296 29.944 145.245 29.921 L 145.264 31.42 Z M 108.443 29.747 C 110.391 29.789 112.354 29.826 114.33 29.858 L 114.318 30.608 L 114.307 31.356 C 112.327 31.324 110.362 31.288 108.411 31.245 L 108.443 29.747 Z M 155.59 31.245 C 153.639 31.288 151.674 31.324 149.694 31.356 L 149.683 30.607 L 149.67 29.858 C 151.646 29.826 153.609 29.789 155.557 29.747 L 155.59 31.245 Z M 98.151 29.471 C 100.094 29.533 102.056 29.59 104.033 29.642 L 104.014 30.391 L 104 30.902 L 103.994 31.139 C 102.014 31.087 100.05 31.03 98.104 30.968 L 98.151 29.471 Z M 165.873 30.22 L 165.896 30.968 C 163.951 31.03 161.987 31.087 160.007 31.139 L 160 30.902 L 159.986 30.391 L 159.987 30.39 L 159.967 29.642 C 161.944 29.59 163.906 29.533 165.849 29.471 L 165.873 30.22 Z M 16.206 28.403 C 17.979 28.803 19.894 29.193 21.943 29.572 L 21.807 30.31 L 21.671 31.047 C 19.605 30.665 17.67 30.271 15.876 29.866 L 16.206 28.403 Z M 248.124 29.866 C 246.33 30.271 244.395 30.665 242.329 31.047 L 242.193 30.31 L 242.057 29.572 C 244.106 29.193 246.021 28.803 247.794 28.403 L 248.124 29.866 Z M 87.86 29.086 C 89.8 29.169 91.761 29.247 93.742 29.319 L 93.715 30.069 L 93.688 30.817 C 91.704 30.745 89.74 30.666 87.797 30.583 L 87.86 29.086 Z M 176.204 30.583 C 174.261 30.666 172.297 30.745 170.313 30.817 L 170.285 30.069 L 170.286 30.068 L 170.258 29.319 C 172.239 29.247 174.2 29.169 176.14 29.086 L 176.204 30.583 Z M 77.565 28.584 C 79.499 28.69 81.459 28.791 83.442 28.886 L 83.372 30.382 C 81.385 30.287 79.422 30.186 77.484 30.08 L 77.565 28.584 Z M 186.517 30.08 C 184.579 30.186 182.616 30.287 180.629 30.382 L 180.558 28.886 C 182.541 28.791 184.501 28.69 186.435 28.584 L 186.517 30.08 Z M 67.288 27.952 C 69.215 28.084 71.173 28.21 73.16 28.33 L 73.07 29.826 C 71.079 29.706 69.118 29.579 67.187 29.447 L 67.224 28.894 L 67.237 28.7 L 67.288 27.952 Z M 196.814 29.447 C 194.883 29.579 192.921 29.706 190.931 29.826 L 190.885 29.078 L 190.886 29.077 L 190.84 28.33 C 192.827 28.21 194.785 28.084 196.712 27.952 L 196.814 29.447 Z M 57.025 27.174 C 58.944 27.335 60.9 27.49 62.893 27.639 L 62.782 29.132 C 60.785 28.983 58.824 28.828 56.9 28.667 L 57.025 27.174 Z M 207.101 28.667 C 205.177 28.828 203.216 28.983 201.219 29.132 L 201.107 27.639 C 203.1 27.49 205.056 27.335 206.975 27.174 L 207.101 28.667 Z M 6.426 25.538 C 7.946 26.153 9.79 26.758 11.941 27.347 L 11.744 28.07 L 11.546 28.793 C 9.357 28.194 7.453 27.572 5.863 26.929 L 6.426 25.538 Z M 258.137 26.929 C 256.547 27.572 254.643 28.194 252.454 28.793 L 252.256 28.07 L 252.059 27.347 C 254.21 26.758 256.055 26.153 257.574 25.538 L 258.137 26.929 Z M 46.779 26.221 C 48.685 26.417 50.639 26.606 52.638 26.789 L 52.502 28.281 C 50.497 28.098 48.538 27.908 46.626 27.711 L 46.779 26.221 Z M 217.375 27.711 C 215.463 27.908 213.504 28.098 211.499 28.281 L 211.362 26.789 C 213.361 26.606 215.315 26.417 217.221 26.221 L 217.375 27.711 Z M 36.566 25.051 C 38.448 25.291 40.393 25.523 42.398 25.749 L 42.231 27.238 C 40.219 27.012 38.267 26.777 36.377 26.536 L 36.566 25.051 Z M 227.624 26.536 C 225.734 26.777 223.782 27.012 221.77 27.238 L 221.602 25.749 C 223.607 25.523 225.552 25.291 227.434 25.051 L 227.624 26.536 Z M 26.416 23.588 C 28.258 23.889 30.19 24.182 32.205 24.466 L 32.101 25.208 L 32.019 25.785 L 31.996 25.949 C 29.971 25.664 28.029 25.369 26.176 25.066 L 26.179 25.047 L 26.296 24.328 L 26.416 23.588 Z M 237.825 25.066 C 235.972 25.369 234.03 25.664 232.005 25.949 L 231.899 25.208 L 231.9 25.207 L 231.795 24.466 C 233.81 24.182 235.742 23.889 237.584 23.588 L 237.825 25.066 Z M 1.5 21.75 C 1.5 22.228 1.805 22.84 2.741 23.571 L 2.279 24.162 L 1.818 24.753 C 0.74 23.911 0 22.913 0 21.75 L 1.5 21.75 Z M 264 21.75 C 264 22.913 263.259 23.911 262.182 24.753 L 261.721 24.162 L 261.259 23.571 C 262.195 22.84 262.5 22.228 262.5 21.75 L 264 21.75 Z M 16.371 21.672 C 18.133 22.069 20.038 22.457 22.08 22.835 L 21.808 24.308 C 19.75 23.927 17.825 23.534 16.042 23.132 L 16.371 21.672 Z M 247.959 23.132 C 246.176 23.534 244.251 23.927 242.193 24.308 L 241.92 22.835 C 243.962 22.457 245.867 22.068 247.629 21.671 L 247.959 23.132 Z M 6.707 18.843 C 8.192 19.444 10.007 20.04 12.14 20.623 L 11.745 22.066 C 9.575 21.473 7.7 20.862 6.146 20.232 L 6.707 18.843 Z M 257.855 20.232 C 256.301 20.862 254.426 21.473 252.256 22.066 L 251.86 20.623 C 253.993 20.04 255.808 19.444 257.293 18.843 L 257.855 20.232 Z M 3.203 14.521 C 2.339 15.196 2.25 15.614 2.25 15.75 C 2.25 15.885 2.338 16.304 3.203 16.979 L 2.741 17.571 L 2.29 18.148 L 2.28 18.161 C 1.273 17.375 0.75 16.57 0.75 15.75 C 0.75 14.93 1.273 14.124 2.28 13.338 L 3.203 14.521 Z M 261.721 13.338 C 262.728 14.124 263.25 14.93 263.25 15.75 C 263.25 16.57 262.727 17.375 261.721 18.161 L 261.26 17.57 L 260.797 16.979 C 261.662 16.304 261.75 15.885 261.75 15.75 C 261.75 15.614 261.661 15.196 260.797 14.521 L 261.721 13.338 Z M 12.14 10.877 C 10.007 11.46 8.192 12.056 6.707 12.657 L 6.146 11.267 C 7.7 10.637 9.575 10.026 11.745 9.433 L 12.14 10.877 Z M 252.256 9.433 C 254.426 10.026 256.301 10.637 257.855 11.267 L 257.293 12.657 C 255.808 12.056 253.993 11.46 251.86 10.877 L 252.256 9.433 Z M 22.08 8.665 C 20.038 9.043 18.133 9.432 16.371 9.829 L 16.042 8.367 C 17.825 7.965 19.75 7.572 21.808 7.191 L 22.08 8.665 Z M 242.193 7.191 C 244.251 7.572 246.176 7.965 247.959 8.367 L 247.629 9.829 C 245.867 9.432 243.962 9.043 241.92 8.665 L 242.193 7.191 Z M 32.205 7.034 C 30.19 7.318 28.258 7.611 26.416 7.912 L 26.272 7.035 L 26.176 6.433 C 28.029 6.13 29.971 5.835 31.996 5.55 L 32.205 7.034 Z M 232.005 5.55 C 234.03 5.835 235.972 6.13 237.825 6.433 L 237.728 7.035 L 237.584 7.912 C 235.742 7.611 233.81 7.318 231.795 7.034 L 231.979 5.731 L 232.005 5.55 Z M 42.398 5.751 C 40.393 5.977 38.448 6.209 36.566 6.449 L 36.377 4.963 C 38.267 4.722 40.219 4.487 42.231 4.261 L 42.398 5.751 Z M 221.77 4.261 C 223.782 4.487 225.734 4.722 227.624 4.963 L 227.434 6.449 C 225.552 6.209 223.607 5.977 221.602 5.751 L 221.77 4.261 Z M 52.638 4.711 C 50.639 4.894 48.685 5.083 46.779 5.279 L 46.626 3.788 C 48.538 3.591 50.497 3.401 52.502 3.218 L 52.638 4.711 Z M 211.499 3.218 C 213.504 3.401 215.463 3.591 217.375 3.788 L 217.221 5.279 C 215.315 5.083 213.361 4.894 211.362 4.711 L 211.499 3.218 Z M 62.893 3.861 C 60.9 4.01 58.944 4.165 57.025 4.326 L 56.9 2.832 C 58.824 2.671 60.785 2.516 62.782 2.367 L 62.893 3.861 Z M 201.219 2.367 C 203.216 2.516 205.177 2.671 207.101 2.832 L 206.975 4.326 C 205.056 4.165 203.1 4.01 201.107 3.861 L 201.219 2.367 Z M 73.16 3.17 C 71.173 3.29 69.215 3.416 67.288 3.548 L 67.237 2.799 L 67.236 2.8 L 67.187 2.052 C 69.118 1.92 71.08 1.793 73.07 1.673 L 73.16 3.17 Z M 190.931 1.673 C 192.921 1.793 194.883 1.92 196.814 2.052 L 196.764 2.799 L 196.712 3.548 C 194.785 3.416 192.827 3.29 190.84 3.17 L 190.931 1.673 Z M 83.442 2.614 C 81.459 2.709 79.499 2.81 77.565 2.916 L 77.518 2.052 L 77.484 1.419 C 79.422 1.313 81.385 1.212 83.372 1.117 L 83.442 2.614 Z M 180.629 1.117 C 182.616 1.212 184.579 1.313 186.517 1.419 L 186.482 2.052 L 186.435 2.916 C 184.501 2.81 182.541 2.709 180.558 2.614 L 180.629 1.117 Z M 93.742 2.181 C 91.761 2.253 89.8 2.331 87.86 2.414 L 87.797 0.916 C 89.74 0.833 91.704 0.754 93.688 0.682 L 93.742 2.181 Z M 170.313 0.682 C 172.297 0.754 174.261 0.833 176.204 0.916 L 176.14 2.414 C 174.2 2.331 172.239 2.253 170.258 2.181 L 170.313 0.682 Z M 104.033 1.858 C 102.056 1.91 100.094 1.967 98.151 2.029 L 98.128 1.279 L 98.127 1.28 L 98.104 0.531 C 100.05 0.469 102.014 0.412 103.994 0.36 L 104.033 1.858 Z M 160.006 0.36 C 161.986 0.412 163.95 0.469 165.896 0.531 L 165.873 1.279 L 165.849 2.029 C 163.906 1.967 161.944 1.91 159.967 1.858 L 160.006 0.36 Z M 114.317 0.87 L 114.33 1.642 C 112.354 1.674 110.391 1.711 108.443 1.753 L 108.411 0.254 C 110.362 0.211 112.327 0.175 114.307 0.143 L 114.317 0.87 Z M 149.694 0.143 C 151.674 0.175 153.639 0.211 155.59 0.254 L 155.557 1.753 C 153.609 1.711 151.646 1.674 149.67 1.642 L 149.694 0.143 Z M 124.638 1.524 C 122.665 1.538 120.704 1.556 118.755 1.579 L 118.737 0.079 C 120.689 0.056 122.653 0.038 124.629 0.024 L 124.638 1.524 Z M 139.372 0.024 C 141.348 0.038 143.312 0.056 145.264 0.079 L 145.245 1.579 C 143.296 1.556 141.335 1.538 139.362 1.524 L 139.372 0.024 Z M 134.958 0.004 L 134.956 0.753 L 134.953 1.504 C 133.971 1.501 132.987 1.5 132 1.5 C 131.013 1.5 130.028 1.501 129.046 1.504 L 129.043 0.004 C 130.026 0.001 131.012 0 132 0 C 132.989 0 133.975 0.001 134.958 0.004 Z" fill="currentColor" fill-rule="nonzero"></path>
</svg>